<?xml version="1.0" encoding="utf-8" standalone="no"?>
<!DOCTYPE svg PUBLIC "-//W3C//DTD SVG 1.1//EN"
  "http://www.w3.org/Graphics/SVG/1.1/DTD/svg11.dtd">
<svg xmlns:xlink="http://www.w3.org/1999/xlink" width="460.8pt" height="345.6pt" viewBox="0 0 460.8 345.6" xmlns="http://www.w3.org/2000/svg" version="1.1">
 <metadata>
  <rdf:RDF xmlns:dc="http://purl.org/dc/elements/1.1/" xmlns:cc="http://creativecommons.org/ns#" xmlns:rdf="http://www.w3.org/1999/02/22-rdf-syntax-ns#">
   <cc:Work>
    <dc:type rdf:resource="http://purl.org/dc/dcmitype/StillImage"/>
    <dc:date>2022-04-25T01:10:52.925786</dc:date>
    <dc:format>image/svg+xml</dc:format>
    <dc:creator>
     <cc:Agent>
      <dc:title>Matplotlib v3.5.1, https://matplotlib.org/</dc:title>
     </cc:Agent>
    </dc:creator>
   </cc:Work>
  </rdf:RDF>
 </metadata>
 <defs>
  <style type="text/css">*{stroke-linejoin: round; stroke-linecap: butt}</style>
 </defs>
 <g id="figure_1">
  <g id="patch_1">
   <path d="M 0 345.6
L 460.8 345.6
L 460.8 0
L 0 0
z
" style="fill: #ffffff"/>
  </g>
  <g id="axes_1">
   <g id="patch_2">
    <path d="M 57.6 307.584
L 414.72 307.584
L 414.72 41.472
L 57.6 41.472
z
" style="fill: #ffffff"/>
   </g>
   <g id="matplotlib.axis_1">
    <g id="xtick_1">
     <g id="line2d_1">
      <path d="M 73.832727 307.584
L 73.832727 41.472
" clip-path="url(#p687a82b548)" style="fill: none; stroke: #b0b0b0; stroke-width: 0.8; stroke-linecap: square"/>
     </g>
     <g id="line2d_2">
      <defs>
       <path id="mfdcefeb29e" d="M 0 0
L 0 3.5
" style="stroke: #000000; stroke-width: 0.8"/>
      </defs>
      <g>
       <use xlink:href="#mfdcefeb29e" x="73.832727" y="307.584" style="stroke: #000000; stroke-width: 0.8"/>
      </g>
     </g>
     <g id="text_1">
      <!-- 0 -->
      <g transform="translate(70.651477 322.182437)scale(0.1 -0.1)">
       <defs>
        <path id="DejaVuSans-30" d="M 2034 4250
Q 1547 4250 1301 3770
Q 1056 3291 1056 2328
Q 1056 1369 1301 889
Q 1547 409 2034 409
Q 2525 409 2770 889
Q 3016 1369 3016 2328
Q 3016 3291 2770 3770
Q 2525 4250 2034 4250
z
M 2034 4750
Q 2819 4750 3233 4129
Q 3647 3509 3647 2328
Q 3647 1150 3233 529
Q 2819 -91 2034 -91
Q 1250 -91 836 529
Q 422 1150 422 2328
Q 422 3509 836 4129
Q 1250 4750 2034 4750
z
" transform="scale(0.015625)"/>
       </defs>
       <use xlink:href="#DejaVuSans-30"/>
      </g>
     </g>
    </g>
    <g id="xtick_2">
     <g id="line2d_3">
      <path d="M 127.941818 307.584
L 127.941818 41.472
" clip-path="url(#p687a82b548)" style="fill: none; stroke: #b0b0b0; stroke-width: 0.8; stroke-linecap: square"/>
     </g>
     <g id="line2d_4">
      <g>
       <use xlink:href="#mfdcefeb29e" x="127.941818" y="307.584" style="stroke: #000000; stroke-width: 0.8"/>
      </g>
     </g>
     <g id="text_2">
      <!-- 50 -->
      <g transform="translate(121.579318 322.182437)scale(0.1 -0.1)">
       <defs>
        <path id="DejaVuSans-35" d="M 691 4666
L 3169 4666
L 3169 4134
L 1269 4134
L 1269 2991
Q 1406 3038 1543 3061
Q 1681 3084 1819 3084
Q 2600 3084 3056 2656
Q 3513 2228 3513 1497
Q 3513 744 3044 326
Q 2575 -91 1722 -91
Q 1428 -91 1123 -41
Q 819 9 494 109
L 494 744
Q 775 591 1075 516
Q 1375 441 1709 441
Q 2250 441 2565 725
Q 2881 1009 2881 1497
Q 2881 1984 2565 2268
Q 2250 2553 1709 2553
Q 1456 2553 1204 2497
Q 953 2441 691 2322
L 691 4666
z
" transform="scale(0.015625)"/>
       </defs>
       <use xlink:href="#DejaVuSans-35"/>
       <use xlink:href="#DejaVuSans-30" x="63.623047"/>
      </g>
     </g>
    </g>
    <g id="xtick_3">
     <g id="line2d_5">
      <path d="M 182.050909 307.584
L 182.050909 41.472
" clip-path="url(#p687a82b548)" style="fill: none; stroke: #b0b0b0; stroke-width: 0.8; stroke-linecap: square"/>
     </g>
     <g id="line2d_6">
      <g>
       <use xlink:href="#mfdcefeb29e" x="182.050909" y="307.584" style="stroke: #000000; stroke-width: 0.8"/>
      </g>
     </g>
     <g id="text_3">
      <!-- 100 -->
      <g transform="translate(172.507159 322.182437)scale(0.1 -0.1)">
       <defs>
        <path id="DejaVuSans-31" d="M 794 531
L 1825 531
L 1825 4091
L 703 3866
L 703 4441
L 1819 4666
L 2450 4666
L 2450 531
L 3481 531
L 3481 0
L 794 0
L 794 531
z
" transform="scale(0.015625)"/>
       </defs>
       <use xlink:href="#DejaVuSans-31"/>
       <use xlink:href="#DejaVuSans-30" x="63.623047"/>
       <use xlink:href="#DejaVuSans-30" x="127.246094"/>
      </g>
     </g>
    </g>
    <g id="xtick_4">
     <g id="line2d_7">
      <path d="M 236.16 307.584
L 236.16 41.472
" clip-path="url(#p687a82b548)" style="fill: none; stroke: #b0b0b0; stroke-width: 0.8; stroke-linecap: square"/>
     </g>
     <g id="line2d_8">
      <g>
       <use xlink:href="#mfdcefeb29e" x="236.16" y="307.584" style="stroke: #000000; stroke-width: 0.8"/>
      </g>
     </g>
     <g id="text_4">
      <!-- 150 -->
      <g transform="translate(226.61625 322.182437)scale(0.1 -0.1)">
       <use xlink:href="#DejaVuSans-31"/>
       <use xlink:href="#DejaVuSans-35" x="63.623047"/>
       <use xlink:href="#DejaVuSans-30" x="127.246094"/>
      </g>
     </g>
    </g>
    <g id="xtick_5">
     <g id="line2d_9">
      <path d="M 290.269091 307.584
L 290.269091 41.472
" clip-path="url(#p687a82b548)" style="fill: none; stroke: #b0b0b0; stroke-width: 0.8; stroke-linecap: square"/>
     </g>
     <g id="line2d_10">
      <g>
       <use xlink:href="#mfdcefeb29e" x="290.269091" y="307.584" style="stroke: #000000; stroke-width: 0.8"/>
      </g>
     </g>
     <g id="text_5">
      <!-- 200 -->
      <g transform="translate(280.725341 322.182437)scale(0.1 -0.1)">
       <defs>
        <path id="DejaVuSans-32" d="M 1228 531
L 3431 531
L 3431 0
L 469 0
L 469 531
Q 828 903 1448 1529
Q 2069 2156 2228 2338
Q 2531 2678 2651 2914
Q 2772 3150 2772 3378
Q 2772 3750 2511 3984
Q 2250 4219 1831 4219
Q 1534 4219 1204 4116
Q 875 4013 500 3803
L 500 4441
Q 881 4594 1212 4672
Q 1544 4750 1819 4750
Q 2544 4750 2975 4387
Q 3406 4025 3406 3419
Q 3406 3131 3298 2873
Q 3191 2616 2906 2266
Q 2828 2175 2409 1742
Q 1991 1309 1228 531
z
" transform="scale(0.015625)"/>
       </defs>
       <use xlink:href="#DejaVuSans-32"/>
       <use xlink:href="#DejaVuSans-30" x="63.623047"/>
       <use xlink:href="#DejaVuSans-30" x="127.246094"/>
      </g>
     </g>
    </g>
    <g id="xtick_6">
     <g id="line2d_11">
      <path d="M 344.378182 307.584
L 344.378182 41.472
" clip-path="url(#p687a82b548)" style="fill: none; stroke: #b0b0b0; stroke-width: 0.8; stroke-linecap: square"/>
     </g>
     <g id="line2d_12">
      <g>
       <use xlink:href="#mfdcefeb29e" x="344.378182" y="307.584" style="stroke: #000000; stroke-width: 0.8"/>
      </g>
     </g>
     <g id="text_6">
      <!-- 250 -->
      <g transform="translate(334.834432 322.182437)scale(0.1 -0.1)">
       <use xlink:href="#DejaVuSans-32"/>
       <use xlink:href="#DejaVuSans-35" x="63.623047"/>
       <use xlink:href="#DejaVuSans-30" x="127.246094"/>
      </g>
     </g>
    </g>
    <g id="xtick_7">
     <g id="line2d_13">
      <path d="M 398.487273 307.584
L 398.487273 41.472
" clip-path="url(#p687a82b548)" style="fill: none; stroke: #b0b0b0; stroke-width: 0.8; stroke-linecap: square"/>
     </g>
     <g id="line2d_14">
      <g>
       <use xlink:href="#mfdcefeb29e" x="398.487273" y="307.584" style="stroke: #000000; stroke-width: 0.8"/>
      </g>
     </g>
     <g id="text_7">
      <!-- 300 -->
      <g transform="translate(388.943523 322.182437)scale(0.1 -0.1)">
       <defs>
        <path id="DejaVuSans-33" d="M 2597 2516
Q 3050 2419 3304 2112
Q 3559 1806 3559 1356
Q 3559 666 3084 287
Q 2609 -91 1734 -91
Q 1441 -91 1130 -33
Q 819 25 488 141
L 488 750
Q 750 597 1062 519
Q 1375 441 1716 441
Q 2309 441 2620 675
Q 2931 909 2931 1356
Q 2931 1769 2642 2001
Q 2353 2234 1838 2234
L 1294 2234
L 1294 2753
L 1863 2753
Q 2328 2753 2575 2939
Q 2822 3125 2822 3475
Q 2822 3834 2567 4026
Q 2313 4219 1838 4219
Q 1578 4219 1281 4162
Q 984 4106 628 3988
L 628 4550
Q 988 4650 1302 4700
Q 1616 4750 1894 4750
Q 2613 4750 3031 4423
Q 3450 4097 3450 3541
Q 3450 3153 3228 2886
Q 3006 2619 2597 2516
z
" transform="scale(0.015625)"/>
       </defs>
       <use xlink:href="#DejaVuSans-33"/>
       <use xlink:href="#DejaVuSans-30" x="63.623047"/>
       <use xlink:href="#DejaVuSans-30" x="127.246094"/>
      </g>
     </g>
    </g>
    <g id="text_8">
     <!-- Generations -->
     <g transform="translate(205.662344 335.860562)scale(0.1 -0.1)">
      <defs>
       <path id="DejaVuSans-47" d="M 3809 666
L 3809 1919
L 2778 1919
L 2778 2438
L 4434 2438
L 4434 434
Q 4069 175 3628 42
Q 3188 -91 2688 -91
Q 1594 -91 976 548
Q 359 1188 359 2328
Q 359 3472 976 4111
Q 1594 4750 2688 4750
Q 3144 4750 3555 4637
Q 3966 4525 4313 4306
L 4313 3634
Q 3963 3931 3569 4081
Q 3175 4231 2741 4231
Q 1884 4231 1454 3753
Q 1025 3275 1025 2328
Q 1025 1384 1454 906
Q 1884 428 2741 428
Q 3075 428 3337 486
Q 3600 544 3809 666
z
" transform="scale(0.015625)"/>
       <path id="DejaVuSans-65" d="M 3597 1894
L 3597 1613
L 953 1613
Q 991 1019 1311 708
Q 1631 397 2203 397
Q 2534 397 2845 478
Q 3156 559 3463 722
L 3463 178
Q 3153 47 2828 -22
Q 2503 -91 2169 -91
Q 1331 -91 842 396
Q 353 884 353 1716
Q 353 2575 817 3079
Q 1281 3584 2069 3584
Q 2775 3584 3186 3129
Q 3597 2675 3597 1894
z
M 3022 2063
Q 3016 2534 2758 2815
Q 2500 3097 2075 3097
Q 1594 3097 1305 2825
Q 1016 2553 972 2059
L 3022 2063
z
" transform="scale(0.015625)"/>
       <path id="DejaVuSans-6e" d="M 3513 2113
L 3513 0
L 2938 0
L 2938 2094
Q 2938 2591 2744 2837
Q 2550 3084 2163 3084
Q 1697 3084 1428 2787
Q 1159 2491 1159 1978
L 1159 0
L 581 0
L 581 3500
L 1159 3500
L 1159 2956
Q 1366 3272 1645 3428
Q 1925 3584 2291 3584
Q 2894 3584 3203 3211
Q 3513 2838 3513 2113
z
" transform="scale(0.015625)"/>
       <path id="DejaVuSans-72" d="M 2631 2963
Q 2534 3019 2420 3045
Q 2306 3072 2169 3072
Q 1681 3072 1420 2755
Q 1159 2438 1159 1844
L 1159 0
L 581 0
L 581 3500
L 1159 3500
L 1159 2956
Q 1341 3275 1631 3429
Q 1922 3584 2338 3584
Q 2397 3584 2469 3576
Q 2541 3569 2628 3553
L 2631 2963
z
" transform="scale(0.015625)"/>
       <path id="DejaVuSans-61" d="M 2194 1759
Q 1497 1759 1228 1600
Q 959 1441 959 1056
Q 959 750 1161 570
Q 1363 391 1709 391
Q 2188 391 2477 730
Q 2766 1069 2766 1631
L 2766 1759
L 2194 1759
z
M 3341 1997
L 3341 0
L 2766 0
L 2766 531
Q 2569 213 2275 61
Q 1981 -91 1556 -91
Q 1019 -91 701 211
Q 384 513 384 1019
Q 384 1609 779 1909
Q 1175 2209 1959 2209
L 2766 2209
L 2766 2266
Q 2766 2663 2505 2880
Q 2244 3097 1772 3097
Q 1472 3097 1187 3025
Q 903 2953 641 2809
L 641 3341
Q 956 3463 1253 3523
Q 1550 3584 1831 3584
Q 2591 3584 2966 3190
Q 3341 2797 3341 1997
z
" transform="scale(0.015625)"/>
       <path id="DejaVuSans-74" d="M 1172 4494
L 1172 3500
L 2356 3500
L 2356 3053
L 1172 3053
L 1172 1153
Q 1172 725 1289 603
Q 1406 481 1766 481
L 2356 481
L 2356 0
L 1766 0
Q 1100 0 847 248
Q 594 497 594 1153
L 594 3053
L 172 3053
L 172 3500
L 594 3500
L 594 4494
L 1172 4494
z
" transform="scale(0.015625)"/>
       <path id="DejaVuSans-69" d="M 603 3500
L 1178 3500
L 1178 0
L 603 0
L 603 3500
z
M 603 4863
L 1178 4863
L 1178 4134
L 603 4134
L 603 4863
z
" transform="scale(0.015625)"/>
       <path id="DejaVuSans-6f" d="M 1959 3097
Q 1497 3097 1228 2736
Q 959 2375 959 1747
Q 959 1119 1226 758
Q 1494 397 1959 397
Q 2419 397 2687 759
Q 2956 1122 2956 1747
Q 2956 2369 2687 2733
Q 2419 3097 1959 3097
z
M 1959 3584
Q 2709 3584 3137 3096
Q 3566 2609 3566 1747
Q 3566 888 3137 398
Q 2709 -91 1959 -91
Q 1206 -91 779 398
Q 353 888 353 1747
Q 353 2609 779 3096
Q 1206 3584 1959 3584
z
" transform="scale(0.015625)"/>
       <path id="DejaVuSans-73" d="M 2834 3397
L 2834 2853
Q 2591 2978 2328 3040
Q 2066 3103 1784 3103
Q 1356 3103 1142 2972
Q 928 2841 928 2578
Q 928 2378 1081 2264
Q 1234 2150 1697 2047
L 1894 2003
Q 2506 1872 2764 1633
Q 3022 1394 3022 966
Q 3022 478 2636 193
Q 2250 -91 1575 -91
Q 1294 -91 989 -36
Q 684 19 347 128
L 347 722
Q 666 556 975 473
Q 1284 391 1588 391
Q 1994 391 2212 530
Q 2431 669 2431 922
Q 2431 1156 2273 1281
Q 2116 1406 1581 1522
L 1381 1569
Q 847 1681 609 1914
Q 372 2147 372 2553
Q 372 3047 722 3315
Q 1072 3584 1716 3584
Q 2034 3584 2315 3537
Q 2597 3491 2834 3397
z
" transform="scale(0.015625)"/>
      </defs>
      <use xlink:href="#DejaVuSans-47"/>
      <use xlink:href="#DejaVuSans-65" x="77.490234"/>
      <use xlink:href="#DejaVuSans-6e" x="139.013672"/>
      <use xlink:href="#DejaVuSans-65" x="202.392578"/>
      <use xlink:href="#DejaVuSans-72" x="263.916016"/>
      <use xlink:href="#DejaVuSans-61" x="305.029297"/>
      <use xlink:href="#DejaVuSans-74" x="366.308594"/>
      <use xlink:href="#DejaVuSans-69" x="405.517578"/>
      <use xlink:href="#DejaVuSans-6f" x="433.300781"/>
      <use xlink:href="#DejaVuSans-6e" x="494.482422"/>
      <use xlink:href="#DejaVuSans-73" x="557.861328"/>
     </g>
    </g>
   </g>
   <g id="matplotlib.axis_2">
    <g id="ytick_1">
     <g id="line2d_15">
      <path d="M 57.6 278.149427
L 414.72 278.149427
" clip-path="url(#p687a82b548)" style="fill: none; stroke: #b0b0b0; stroke-width: 0.8; stroke-linecap: square"/>
     </g>
     <g id="line2d_16">
      <defs>
       <path id="m3097dc4cfd" d="M 0 0
L -3.5 0
" style="stroke: #000000; stroke-width: 0.8"/>
      </defs>
      <g>
       <use xlink:href="#m3097dc4cfd" x="57.6" y="278.149427" style="stroke: #000000; stroke-width: 0.8"/>
      </g>
     </g>
     <g id="text_9">
      <!-- −5 -->
      <g transform="translate(35.857813 281.948646)scale(0.1 -0.1)">
       <defs>
        <path id="DejaVuSans-2212" d="M 678 2272
L 4684 2272
L 4684 1741
L 678 1741
L 678 2272
z
" transform="scale(0.015625)"/>
       </defs>
       <use xlink:href="#DejaVuSans-2212"/>
       <use xlink:href="#DejaVuSans-35" x="83.789062"/>
      </g>
     </g>
    </g>
    <g id="ytick_2">
     <g id="line2d_17">
      <path d="M 57.6 242.216399
L 414.72 242.216399
" clip-path="url(#p687a82b548)" style="fill: none; stroke: #b0b0b0; stroke-width: 0.8; stroke-linecap: square"/>
     </g>
     <g id="line2d_18">
      <g>
       <use xlink:href="#m3097dc4cfd" x="57.6" y="242.216399" style="stroke: #000000; stroke-width: 0.8"/>
      </g>
     </g>
     <g id="text_10">
      <!-- 0 -->
      <g transform="translate(44.2375 246.015617)scale(0.1 -0.1)">
       <use xlink:href="#DejaVuSans-30"/>
      </g>
     </g>
    </g>
    <g id="ytick_3">
     <g id="line2d_19">
      <path d="M 57.6 206.28337
L 414.72 206.28337
" clip-path="url(#p687a82b548)" style="fill: none; stroke: #b0b0b0; stroke-width: 0.8; stroke-linecap: square"/>
     </g>
     <g id="line2d_20">
      <g>
       <use xlink:href="#m3097dc4cfd" x="57.6" y="206.28337" style="stroke: #000000; stroke-width: 0.8"/>
      </g>
     </g>
     <g id="text_11">
      <!-- 5 -->
      <g transform="translate(44.2375 210.082589)scale(0.1 -0.1)">
       <use xlink:href="#DejaVuSans-35"/>
      </g>
     </g>
    </g>
    <g id="ytick_4">
     <g id="line2d_21">
      <path d="M 57.6 170.350342
L 414.72 170.350342
" clip-path="url(#p687a82b548)" style="fill: none; stroke: #b0b0b0; stroke-width: 0.8; stroke-linecap: square"/>
     </g>
     <g id="line2d_22">
      <g>
       <use xlink:href="#m3097dc4cfd" x="57.6" y="170.350342" style="stroke: #000000; stroke-width: 0.8"/>
      </g>
     </g>
     <g id="text_12">
      <!-- 10 -->
      <g transform="translate(37.875 174.149561)scale(0.1 -0.1)">
       <use xlink:href="#DejaVuSans-31"/>
       <use xlink:href="#DejaVuSans-30" x="63.623047"/>
      </g>
     </g>
    </g>
    <g id="ytick_5">
     <g id="line2d_23">
      <path d="M 57.6 134.417314
L 414.72 134.417314
" clip-path="url(#p687a82b548)" style="fill: none; stroke: #b0b0b0; stroke-width: 0.8; stroke-linecap: square"/>
     </g>
     <g id="line2d_24">
      <g>
       <use xlink:href="#m3097dc4cfd" x="57.6" y="134.417314" style="stroke: #000000; stroke-width: 0.8"/>
      </g>
     </g>
     <g id="text_13">
      <!-- 15 -->
      <g transform="translate(37.875 138.216532)scale(0.1 -0.1)">
       <use xlink:href="#DejaVuSans-31"/>
       <use xlink:href="#DejaVuSans-35" x="63.623047"/>
      </g>
     </g>
    </g>
    <g id="ytick_6">
     <g id="line2d_25">
      <path d="M 57.6 98.484285
L 414.72 98.484285
" clip-path="url(#p687a82b548)" style="fill: none; stroke: #b0b0b0; stroke-width: 0.8; stroke-linecap: square"/>
     </g>
     <g id="line2d_26">
      <g>
       <use xlink:href="#m3097dc4cfd" x="57.6" y="98.484285" style="stroke: #000000; stroke-width: 0.8"/>
      </g>
     </g>
     <g id="text_14">
      <!-- 20 -->
      <g transform="translate(37.875 102.283504)scale(0.1 -0.1)">
       <use xlink:href="#DejaVuSans-32"/>
       <use xlink:href="#DejaVuSans-30" x="63.623047"/>
      </g>
     </g>
    </g>
    <g id="ytick_7">
     <g id="line2d_27">
      <path d="M 57.6 62.551257
L 414.72 62.551257
" clip-path="url(#p687a82b548)" style="fill: none; stroke: #b0b0b0; stroke-width: 0.8; stroke-linecap: square"/>
     </g>
     <g id="line2d_28">
      <g>
       <use xlink:href="#m3097dc4cfd" x="57.6" y="62.551257" style="stroke: #000000; stroke-width: 0.8"/>
      </g>
     </g>
     <g id="text_15">
      <!-- 25 -->
      <g transform="translate(37.875 66.350476)scale(0.1 -0.1)">
       <use xlink:href="#DejaVuSans-32"/>
       <use xlink:href="#DejaVuSans-35" x="63.623047"/>
      </g>
     </g>
    </g>
    <g id="text_16">
     <!-- Fitness -->
     <g transform="translate(29.778125 191.845187)rotate(-90)scale(0.1 -0.1)">
      <defs>
       <path id="DejaVuSans-46" d="M 628 4666
L 3309 4666
L 3309 4134
L 1259 4134
L 1259 2759
L 3109 2759
L 3109 2228
L 1259 2228
L 1259 0
L 628 0
L 628 4666
z
" transform="scale(0.015625)"/>
      </defs>
      <use xlink:href="#DejaVuSans-46"/>
      <use xlink:href="#DejaVuSans-69" x="50.269531"/>
      <use xlink:href="#DejaVuSans-74" x="78.052734"/>
      <use xlink:href="#DejaVuSans-6e" x="117.261719"/>
      <use xlink:href="#DejaVuSans-65" x="180.640625"/>
      <use xlink:href="#DejaVuSans-73" x="242.164062"/>
      <use xlink:href="#DejaVuSans-73" x="294.263672"/>
     </g>
    </g>
   </g>
   <g id="line2d_29">
    <path d="M 73.832727 242.036733
L 74.914909 241.677403
L 75.997091 241.569604
L 77.079273 240.707211
L 78.161455 240.311948
L 79.243636 240.81501
L 80.325818 240.491613
L 81.408 240.994676
L 82.490182 241.174341
L 83.572364 241.102475
L 85.736727 241.713336
L 86.818909 241.64147
L 87.901091 242.036733
L 88.983273 241.425872
L 90.065455 241.318073
L 91.147636 241.677403
L 92.229818 241.497738
L 93.312 240.671278
L 94.394182 240.743144
L 95.476364 241.425872
L 96.558545 240.850943
L 97.640727 240.45568
L 98.722909 240.383814
L 99.805091 240.850943
L 100.887273 239.377689
L 101.969455 239.62922
L 103.051636 240.168216
L 104.133818 240.563479
L 105.216 240.779077
L 106.298182 240.383814
L 108.462545 240.276015
L 109.544727 239.665153
L 111.709091 241.174341
L 112.791273 240.168216
L 113.873455 240.599412
L 117.12 240.34929
L 118.202182 239.221979
L 119.284364 240.137919
L 120.366545 240.666346
L 121.448727 239.772953
L 122.530909 240.419747
L 123.613091 240.276015
L 124.695273 241.102475
L 125.777455 240.132283
L 126.859636 240.707211
L 127.941818 240.635345
L 129.024 240.09635
L 130.106182 239.808886
L 131.188364 239.988551
L 132.270545 240.311948
L 133.352727 240.994676
L 134.434909 240.347881
L 135.517091 240.491613
L 137.681455 241.102475
L 138.763636 240.922809
L 139.845818 241.138408
L 140.928 240.81501
L 142.010182 239.62922
L 143.092364 240.419747
L 144.174545 241.006409
L 145.256727 240.168216
L 146.338909 239.665153
L 147.421091 240.311948
L 148.503273 241.497738
L 149.585455 240.240082
L 150.667636 239.772953
L 151.749818 241.605537
L 152.832 239.26989
L 153.914182 241.497738
L 154.996364 240.779077
L 156.078545 240.346414
L 157.160727 241.030609
L 158.242909 240.419747
L 159.325091 241.59307
L 161.489455 239.979751
L 162.571636 240.032234
L 163.653818 240.491613
L 164.736 240.204149
L 165.818182 240.786411
L 166.900364 239.557354
L 167.982545 239.997006
L 170.146909 236.718645
L 171.229091 237.940368
L 172.311273 239.759753
L 173.393455 240.89641
L 174.475636 241.533671
L 175.557818 241.102475
L 176.64 240.456413
L 177.722182 241.263073
L 178.804364 240.89641
L 179.886545 241.409739
L 182.050909 242.144532
L 183.133091 241.959734
L 185.297455 241.389939
L 186.379636 241.652743
L 187.461818 241.476601
L 188.544 241.687972
L 190.708364 241.821135
L 191.790545 241.066542
L 192.872727 240.89641
L 193.954909 240.032234
L 195.037091 241.785202
L 196.119273 241.354006
L 197.201455 240.491613
L 198.283636 241.758429
L 199.365818 241.749269
L 200.448 241.497738
L 201.530182 241.893001
L 202.612364 241.886401
L 203.694545 242.216399
L 208.023273 242.216399
L 209.105455 241.969799
L 210.187636 242.145942
L 212.352 241.928934
L 214.516364 242.069733
L 215.598545 241.336406
L 216.680727 241.483071
L 217.762909 241.893001
L 218.845091 242.144532
L 219.927273 242.108599
L 221.009455 241.893001
L 222.091636 242.216399
L 224.256 242.179732
L 225.338182 242.036733
L 226.420364 242.072666
L 227.502545 241.767236
L 228.584727 242.0008
L 229.666909 241.102475
L 230.749091 242.108599
L 231.831273 241.547058
L 232.913455 242.216399
L 233.995636 241.652743
L 235.077818 242.112746
L 237.242182 241.870889
L 238.324364 241.406144
L 239.406545 241.569604
L 240.488727 242.216399
L 243.735273 242.216399
L 244.817455 241.842096
L 245.899636 242.216399
L 246.981818 241.7232
L 248.064 242.110713
L 249.146182 242.040256
L 250.228364 241.793657
L 251.310545 242.145942
L 252.392727 241.666403
L 254.557091 240.060417
L 255.639273 238.513097
L 256.721455 239.715178
L 257.803636 239.988551
L 258.885818 239.398122
L 259.968 239.539036
L 261.050182 239.292436
L 263.214545 239.593287
L 264.296727 239.43335
L 265.378909 240.560661
L 266.461091 239.574264
L 267.543273 239.926549
L 268.625455 239.341756
L 269.707636 240.948174
L 270.789818 240.419747
L 271.872 240.208376
L 272.954182 240.922809
L 274.036364 240.053084
L 275.118545 240.786411
L 276.200727 240.525432
L 278.365091 241.7232
L 279.447273 241.849735
L 280.529455 241.793657
L 283.776 242.216399
L 284.858182 242.033067
L 285.940364 242.18117
L 288.104727 241.687972
L 289.186909 242.216399
L 290.269091 241.698134
L 291.351273 242.216399
L 292.433455 242.216399
L 293.515636 241.732685
L 295.68 242.036733
L 296.762182 241.354006
L 297.844364 241.066542
L 298.926545 241.246207
L 300.008727 241.934571
L 301.090909 241.652743
L 302.173091 242.216399
L 303.255273 242.216399
L 304.337455 241.629737
L 305.419636 241.959734
L 306.501818 242.110713
L 307.584 241.969799
L 308.666182 242.181848
L 309.748364 241.387175
L 310.830545 241.9964
L 311.912727 242.108599
L 312.994909 241.461805
L 314.077091 242.005028
L 315.159273 240.595889
L 316.241455 241.497738
L 318.405818 241.605537
L 319.488 241.666403
L 320.570182 241.533671
L 321.652364 240.595889
L 322.734545 241.335687
L 323.816727 241.300459
L 324.898909 239.362893
L 325.981091 239.759753
L 327.063273 241.066542
L 328.145455 239.62922
L 329.227636 241.605537
L 330.309818 240.527546
L 331.392 240.933076
L 332.474182 240.707211
L 333.556364 240.599412
L 334.638545 241.043075
L 335.720727 239.305823
L 336.802909 239.413622
L 337.885091 240.491613
L 338.967273 239.596282
L 340.049455 240.80726
L 341.131636 240.994676
L 342.213818 239.970584
L 343.296 240.912946
L 344.378182 240.707211
L 345.460364 240.701575
L 346.542545 241.318073
L 347.624727 241.138408
L 348.706909 240.635345
L 349.789091 241.785202
L 350.871273 239.916685
L 351.953455 240.024484
L 354.117818 240.635345
L 355.2 240.419747
L 356.282182 240.419747
L 357.364364 241.336406
L 358.446545 241.043075
L 359.528727 241.066542
L 360.610909 241.497738
L 361.693091 239.997006
L 362.775273 240.240082
L 363.857455 239.701087
L 364.939636 240.529746
L 366.021818 241.174341
L 367.104 240.994676
L 368.186182 241.300459
L 369.268364 241.089088
L 370.350545 240.603079
L 371.432727 241.677403
L 372.514909 241.64147
L 373.597091 241.373072
L 374.679273 242.040256
L 375.761455 241.776402
L 377.925818 242.033067
L 379.008 241.70307
L 381.172364 242.0008
L 382.254545 241.767236
L 383.336727 241.70307
L 384.418909 241.9964
L 385.501091 242.040256
L 386.583273 241.26523
L 387.665455 240.89641
L 388.747636 240.707211
L 389.829818 241.300459
L 390.912 239.503088
L 391.994182 240.983402
L 393.076364 240.527546
L 394.158545 240.635345
L 395.240727 241.533671
L 396.322909 239.723086
L 398.487273 241.006409
L 398.487273 241.006409
" clip-path="url(#p687a82b548)" style="fill: none; stroke: #0000ff; stroke-width: 1.5; stroke-linecap: square"/>
   </g>
   <g id="line2d_30">
    <path d="M 73.832727 248.780761
L 74.914909 249.896961
L 75.997091 249.586455
L 78.161455 257.217321
L 79.243636 255.570715
L 80.325818 256.926643
L 81.408 257.066182
L 82.490182 255.511979
L 83.572364 257.541158
L 84.654545 254.403134
L 85.736727 252.226679
L 86.818909 252.315697
L 87.901091 247.006026
L 88.983273 254.481781
L 90.065455 255.615851
L 91.147636 252.295902
L 92.229818 254.089688
L 93.312 261.706714
L 94.394182 258.618481
L 95.476364 254.141088
L 96.558545 258.408779
L 97.640727 260.653398
L 98.722909 263.281049
L 99.805091 259.64828
L 100.887273 270.732402
L 101.969455 269.275951
L 103.051636 264.310318
L 105.216 259.090825
L 106.298182 264.060081
L 107.380364 263.040123
L 108.462545 263.255854
L 109.544727 268.579723
L 110.626909 263.066109
L 111.709091 256.012071
L 112.791273 261.598916
L 113.873455 259.725946
L 114.955636 258.169199
L 116.037818 262.730322
L 117.12 263.595643
L 118.202182 270.792537
L 120.366545 259.095511
L 121.448727 266.901223
L 122.530909 261.659784
L 123.613091 261.790389
L 124.695273 256.603277
L 125.777455 264.154688
L 126.859636 259.998797
L 127.941818 262.028749
L 130.106182 267.190254
L 131.188364 265.779255
L 132.270545 262.970878
L 133.352727 258.097589
L 134.434909 262.281632
L 135.517091 261.511544
L 136.599273 257.388241
L 137.681455 257.458477
L 138.763636 258.9755
L 139.845818 256.531003
L 140.928 257.985171
L 142.010182 269.278128
L 143.092364 262.776329
L 144.174545 260.018259
L 145.256727 264.361073
L 146.338909 264.684684
L 147.421091 261.030105
L 148.503273 253.646078
L 149.585455 263.594477
L 150.667636 267.997563
L 151.749818 249.859268
L 152.832 268.507896
L 153.914182 253.651391
L 154.996364 259.830361
L 156.078545 264.657729
L 157.160727 256.408979
L 158.242909 263.523315
L 159.325091 253.585379
L 160.407273 260.217956
L 161.489455 264.979269
L 162.571636 265.264026
L 163.653818 261.227057
L 164.736 267.576155
L 165.818182 264.388325
L 166.900364 272.280567
L 167.982545 270.234107
L 169.064727 285.045669
L 170.146909 295.488
L 171.229091 285.5647
L 172.311273 269.514449
L 173.393455 260.119793
L 174.475636 254.27288
L 175.557818 256.81425
L 176.64 257.888788
L 177.722182 253.863716
L 178.804364 255.536528
L 179.886545 254.467183
L 180.968727 252.001493
L 182.050909 245.062861
L 183.133091 247.080174
L 184.215273 252.341851
L 185.297455 255.205289
L 186.379636 252.494069
L 187.461818 253.320595
L 188.544 252.901252
L 189.626182 248.810283
L 190.708364 249.938262
L 191.790545 253.58527
L 192.872727 254.887687
L 193.954909 260.225671
L 195.037091 252.356843
L 196.119273 251.645165
L 197.201455 261.846718
L 198.283636 248.646831
L 199.365818 247.148917
L 200.448 253.683221
L 201.530182 247.133436
L 202.612364 251.890875
L 203.694545 242.216399
L 208.023273 242.216399
L 209.105455 251.165574
L 210.187636 244.831173
L 211.269818 247.386441
L 212.352 249.091785
L 213.434182 245.68796
L 214.516364 244.924062
L 215.598545 251.932158
L 216.680727 253.43889
L 217.762909 246.996124
L 218.845091 244.856465
L 219.927273 244.556533
L 221.009455 246.289331
L 222.091636 242.216399
L 223.173818 242.216399
L 224.256 243.822778
L 225.338182 246.513966
L 226.420364 245.716637
L 227.502545 250.739257
L 228.584727 247.153652
L 229.666909 260.355638
L 230.749091 244.306397
L 231.831273 256.225113
L 232.913455 242.216399
L 233.995636 250.356811
L 235.077818 244.513231
L 236.16 247.186943
L 237.242182 248.2429
L 238.324364 252.596934
L 239.406545 250.017764
L 240.488727 242.216399
L 243.735273 242.216399
L 244.817455 252.084312
L 245.899636 242.216399
L 246.981818 253.230564
L 248.064 245.241094
L 249.146182 246.750342
L 250.228364 246.159713
L 251.310545 245.035534
L 252.392727 252.435331
L 253.474909 264.292649
L 254.557091 264.014571
L 255.639273 270.888263
L 256.721455 263.685705
L 257.803636 259.43081
L 258.885818 266.139841
L 259.968 260.537798
L 261.050182 264.787864
L 262.132364 263.515632
L 263.214545 260.170116
L 264.296727 263.42825
L 265.378909 257.263261
L 266.461091 264.342852
L 267.543273 264.581739
L 268.625455 267.49592
L 269.707636 256.219376
L 270.789818 260.113937
L 271.872 258.939451
L 272.954182 260.119389
L 274.036364 265.875571
L 275.118545 256.794456
L 276.200727 255.718173
L 277.282909 255.021383
L 278.365091 247.084643
L 280.529455 250.292409
L 281.611636 250.897865
L 282.693818 248.997191
L 283.776 242.216399
L 284.858182 245.481264
L 285.940364 243.791693
L 287.022545 245.006182
L 288.104727 253.864591
L 289.186909 242.216399
L 290.269091 249.26622
L 291.351273 242.216399
L 292.433455 242.216399
L 293.515636 252.564957
L 294.597818 252.926541
L 295.68 246.752729
L 296.762182 251.313615
L 297.844364 260.15087
L 298.926545 262.665457
L 300.008727 246.369441
L 301.090909 250.536743
L 302.173091 242.216399
L 303.255273 242.216399
L 304.337455 253.269904
L 305.419636 247.093024
L 306.501818 245.832279
L 307.584 249.756803
L 308.666182 243.776816
L 309.748364 253.951199
L 310.830545 247.556403
L 311.912727 244.556533
L 312.994909 250.503015
L 314.077091 246.194401
L 315.159273 259.67053
L 316.241455 251.887293
L 317.323636 253.493442
L 318.405818 249.827922
L 319.488 250.829031
L 320.570182 250.96491
L 321.652364 269.155113
L 322.734545 256.19124
L 323.816727 249.616912
L 324.898909 270.934472
L 325.981091 264.401399
L 327.063273 252.040891
L 328.145455 264.610197
L 329.227636 254.205739
L 330.309818 260.871512
L 331.392 260.201726
L 332.474182 259.931751
L 333.556364 257.919169
L 334.638545 258.641169
L 335.720727 272.732985
L 336.802909 265.205828
L 337.885091 260.607563
L 338.967273 268.827452
L 340.049455 267.485137
L 341.131636 256.397501
L 342.213818 266.839134
L 343.296 258.763105
L 344.378182 265.595496
L 345.460364 264.073952
L 346.542545 255.519664
L 347.624727 252.870418
L 348.706909 261.285554
L 349.789091 249.904476
L 350.871273 260.013626
L 351.953455 269.006404
L 353.035636 258.508435
L 354.117818 256.309067
L 355.2 264.652463
L 356.282182 263.822707
L 357.364364 258.706819
L 358.446545 264.360167
L 359.528727 253.693103
L 360.610909 254.631739
L 361.693091 262.126423
L 362.775273 265.457926
L 363.857455 262.960611
L 364.939636 264.004118
L 366.021818 253.130324
L 367.104 258.822093
L 368.186182 250.147923
L 369.268364 251.607246
L 370.350545 260.807139
L 371.432727 249.881237
L 372.514909 250.854912
L 373.597091 257.939774
L 374.679273 245.909297
L 375.761455 250.089563
L 376.843636 249.470198
L 377.925818 246.175554
L 379.008 251.650267
L 380.090182 249.809994
L 381.172364 246.856947
L 382.254545 248.45149
L 383.336727 247.77686
L 384.418909 248.908568
L 385.501091 245.909297
L 386.583273 255.38679
L 387.665455 255.309786
L 388.747636 256.738175
L 389.829818 254.485695
L 390.912 268.803613
L 391.994182 258.480495
L 393.076364 257.630347
L 394.158545 265.720717
L 395.240727 251.866463
L 396.322909 270.150153
L 397.405091 257.888024
L 398.487273 258.071751
L 398.487273 258.071751
" clip-path="url(#p687a82b548)" style="fill: none; stroke-dasharray: 9.6,2.4,1.5,2.4; stroke-dashoffset: 0; stroke: #008000; stroke-width: 1.5"/>
   </g>
   <g id="line2d_31">
    <path d="M 73.832727 235.292706
L 74.914909 233.457846
L 75.997091 233.552753
L 77.079273 228.180234
L 78.161455 223.406575
L 79.243636 226.059306
L 80.325818 224.056583
L 81.408 224.923169
L 82.490182 226.836702
L 83.572364 224.663792
L 84.654545 228.520476
L 85.736727 231.199993
L 86.818909 230.967244
L 87.901091 237.067441
L 88.983273 228.369963
L 90.065455 227.020294
L 91.147636 231.058904
L 92.229818 228.905788
L 93.312 219.635843
L 94.394182 222.867808
L 95.476364 228.710656
L 96.558545 223.293108
L 98.722909 217.486579
L 99.805091 222.053607
L 100.887273 208.022977
L 101.969455 209.98249
L 103.051636 216.026114
L 105.216 222.46733
L 106.298182 216.707547
L 107.380364 217.727505
L 108.462545 217.296176
L 109.544727 210.750584
L 110.626909 217.773385
L 111.709091 226.33661
L 112.791273 218.737516
L 113.873455 221.472879
L 114.955636 222.885893
L 116.037818 217.96544
L 117.12 217.102938
L 118.202182 207.651422
L 120.366545 222.237181
L 121.448727 212.644682
L 122.530909 219.17971
L 123.613091 218.761641
L 124.695273 225.601673
L 125.777455 216.109878
L 126.859636 221.415625
L 127.941818 219.241942
L 129.024 215.457478
L 130.106182 212.427517
L 131.188364 214.197847
L 132.270545 217.653018
L 133.352727 223.891762
L 134.434909 218.41413
L 135.517091 219.471682
L 136.599273 224.24178
L 137.681455 224.746472
L 138.763636 222.870119
L 139.845818 225.745812
L 140.928 223.64485
L 142.010182 209.980313
L 143.092364 218.063165
L 144.174545 221.994559
L 145.256727 215.975359
L 146.338909 214.645623
L 147.421091 219.593792
L 148.503273 229.349398
L 149.585455 216.885687
L 150.667636 211.548342
L 151.749818 233.351806
L 152.832 210.031885
L 153.914182 229.344085
L 154.996364 221.727794
L 156.078545 216.0351
L 157.160727 225.652238
L 158.242909 217.316179
L 159.325091 229.600762
L 160.407273 221.281532
L 161.489455 214.980233
L 162.571636 214.800442
L 163.653818 219.75617
L 164.736 212.832143
L 165.818182 217.184497
L 166.900364 206.834142
L 167.982545 209.759904
L 169.064727 191.56641
L 170.146909 177.94929
L 171.229091 190.316036
L 172.311273 210.005056
L 173.393455 221.673026
L 174.475636 228.794462
L 175.557818 225.390699
L 176.64 223.024039
L 177.722182 228.662431
L 178.804364 226.256291
L 179.886545 228.352294
L 180.968727 231.515364
L 182.050909 239.226204
L 183.133091 236.839294
L 184.215273 230.968038
L 185.297455 227.574589
L 186.379636 230.811417
L 187.461818 229.632606
L 188.544 230.474692
L 189.626182 234.706574
L 190.708364 233.704008
L 191.790545 228.547813
L 192.872727 226.905132
L 193.954909 219.838797
L 195.037091 231.213561
L 196.119273 231.062847
L 197.201455 219.136508
L 198.283636 234.870026
L 199.365818 236.349622
L 200.448 229.312255
L 201.530182 236.652566
L 202.612364 231.881927
L 203.694545 242.216399
L 208.023273 242.216399
L 209.105455 232.774024
L 210.187636 239.46071
L 211.269818 236.61516
L 212.352 234.766084
L 213.434182 238.385506
L 214.516364 239.215404
L 215.598545 230.740654
L 216.680727 229.527253
L 217.762909 236.789879
L 218.845091 239.4326
L 219.927273 239.660666
L 221.009455 237.496672
L 222.091636 242.216399
L 223.173818 242.216399
L 224.256 240.536687
L 225.338182 237.559501
L 226.420364 238.428696
L 227.502545 232.795215
L 228.584727 236.847949
L 229.666909 221.849311
L 230.749091 239.910802
L 231.831273 226.869003
L 232.913455 242.216399
L 233.995636 232.948676
L 235.077818 239.71226
L 236.16 236.752656
L 237.242182 235.498877
L 238.324364 230.215354
L 239.406545 233.121444
L 240.488727 242.216399
L 243.735273 242.216399
L 244.817455 231.599881
L 245.899636 242.216399
L 246.981818 230.215836
L 248.064 238.980332
L 249.146182 237.33017
L 250.228364 237.427601
L 251.310545 239.256349
L 252.392727 230.897475
L 253.474909 217.533242
L 254.557091 216.106262
L 255.639273 206.13793
L 256.721455 215.744651
L 257.803636 220.546292
L 258.885818 212.656403
L 259.968 218.540273
L 261.050182 213.797009
L 262.132364 215.455345
L 263.214545 219.016459
L 264.296727 215.43845
L 265.378909 223.858061
L 266.461091 214.805676
L 267.543273 215.271358
L 268.625455 211.187592
L 269.707636 225.676972
L 270.789818 220.725558
L 271.872 221.477302
L 272.954182 221.72623
L 274.036364 214.230596
L 275.118545 224.778365
L 276.200727 225.332692
L 277.282909 227.31532
L 278.365091 236.361757
L 279.447273 234.982057
L 280.529455 233.294905
L 281.611636 232.94827
L 282.693818 234.932543
L 283.776 242.216399
L 284.858182 238.584869
L 285.940364 240.570648
L 287.022545 238.942902
L 288.104727 229.511353
L 289.186909 242.216399
L 290.269091 234.130047
L 291.351273 242.216399
L 292.433455 242.216399
L 293.515636 230.900412
L 294.597818 230.787596
L 295.68 237.320737
L 296.762182 231.394397
L 297.844364 221.982213
L 298.926545 219.826957
L 300.008727 237.499701
L 301.090909 232.768743
L 302.173091 242.216399
L 303.255273 242.216399
L 304.337455 229.989569
L 305.419636 236.826444
L 306.501818 238.389147
L 307.584 234.182796
L 308.666182 240.586879
L 309.748364 228.823151
L 310.830545 236.436398
L 311.912727 239.660666
L 312.994909 232.420595
L 314.077091 237.815654
L 315.159273 221.521248
L 316.241455 231.108183
L 317.323636 229.530217
L 318.405818 233.383152
L 319.488 232.503775
L 320.570182 232.102432
L 321.652364 212.036666
L 322.734545 226.480134
L 323.816727 232.984005
L 324.898909 207.791314
L 325.981091 215.118107
L 327.063273 230.092192
L 328.145455 214.648244
L 329.227636 229.005335
L 330.309818 220.183581
L 331.392 221.664427
L 332.474182 221.482672
L 333.556364 223.279655
L 334.638545 223.444982
L 335.720727 205.878661
L 336.802909 213.621416
L 337.885091 220.375663
L 338.967273 210.365111
L 340.049455 214.129383
L 341.131636 225.59185
L 342.213818 213.102034
L 343.296 223.062786
L 344.378182 215.818926
L 345.460364 217.329198
L 346.542545 227.116482
L 347.624727 229.406398
L 348.706909 219.985137
L 349.789091 233.665928
L 350.871273 219.819743
L 351.953455 211.042564
L 353.035636 222.115461
L 354.117818 224.961624
L 355.2 216.187031
L 356.282182 217.016787
L 357.364364 223.965993
L 358.446545 217.725983
L 359.528727 228.43998
L 360.610909 228.363737
L 361.693091 217.867588
L 362.775273 215.022238
L 363.857455 216.441562
L 364.939636 217.055374
L 366.021818 229.218358
L 367.104 223.167258
L 368.186182 232.452994
L 369.268364 230.570929
L 370.350545 220.399019
L 371.432727 233.473569
L 372.514909 232.428029
L 373.597091 224.806371
L 374.679273 238.171215
L 375.761455 233.463241
L 376.843636 234.258029
L 377.925818 237.89058
L 379.008 231.755872
L 380.090182 233.832277
L 381.172364 237.144654
L 382.254545 235.082981
L 383.336727 235.629279
L 384.418909 235.084233
L 385.501091 238.171215
L 386.583273 227.14367
L 387.665455 226.483034
L 388.747636 224.676247
L 389.829818 228.115222
L 390.912 210.202563
L 391.994182 223.486309
L 393.076364 223.424746
L 394.158545 215.549973
L 395.240727 231.200879
L 396.322909 209.29602
L 397.405091 222.951471
L 398.487273 223.941066
L 398.487273 223.941066
" clip-path="url(#p687a82b548)" style="fill: none; stroke-dasharray: 9.6,2.4,1.5,2.4; stroke-dashoffset: 0; stroke: #008000; stroke-width: 1.5"/>
   </g>
   <g id="line2d_32">
    <path d="M 73.832727 197.300113
L 74.914909 215.266627
L 75.997091 215.266627
L 77.079273 213.469976
L 78.161455 204.486719
L 79.243636 197.300113
L 81.408 197.300113
L 82.490182 215.266627
L 83.572364 215.266627
L 84.654545 224.249884
L 85.736727 224.249884
L 86.818909 215.266627
L 87.901091 224.249884
L 88.983273 215.266627
L 92.229818 215.266627
L 93.312 197.300113
L 94.394182 206.28337
L 95.476364 224.249884
L 96.558545 197.300113
L 97.640727 206.28337
L 98.722909 206.28337
L 99.805091 197.300113
L 100.887273 179.333599
L 103.051636 197.300113
L 104.133818 197.300113
L 105.216 206.28337
L 106.298182 188.316856
L 107.380364 197.300113
L 108.462545 197.300113
L 109.544727 188.316856
L 111.709091 206.28337
L 112.791273 193.70681
L 113.873455 197.300113
L 114.955636 188.316856
L 116.037818 188.316856
L 117.12 179.333599
L 118.202182 179.333599
L 120.366545 197.300113
L 121.448727 170.350342
L 122.530909 197.300113
L 123.613091 197.300113
L 124.695273 215.266627
L 125.777455 188.316856
L 126.859636 197.300113
L 127.941818 188.316856
L 129.024 197.300113
L 130.106182 197.300113
L 131.188364 179.333599
L 132.270545 197.300113
L 134.434909 197.300113
L 135.517091 188.316856
L 137.681455 206.28337
L 138.763636 197.300113
L 139.845818 206.28337
L 140.928 206.28337
L 142.010182 179.333599
L 143.092364 206.28337
L 144.174545 215.266627
L 145.256727 197.300113
L 146.338909 188.316856
L 147.421091 197.300113
L 148.503273 215.266627
L 149.585455 188.316856
L 150.667636 179.333599
L 151.749818 224.249884
L 152.832 179.333599
L 153.914182 224.249884
L 154.996364 206.28337
L 156.078545 206.28337
L 157.160727 215.266627
L 158.242909 206.28337
L 159.325091 215.266627
L 160.407273 197.300113
L 161.489455 206.28337
L 162.571636 197.300113
L 163.653818 206.28337
L 164.736 116.4508
L 165.818182 125.434057
L 166.900364 89.501028
L 167.982545 125.434057
L 169.064727 53.568
L 170.146909 89.501028
L 171.229091 143.400571
L 172.311273 143.400571
L 173.393455 197.300113
L 174.475636 206.28337
L 175.557818 206.28337
L 176.64 197.300113
L 177.722182 195.503462
L 178.804364 202.690067
L 179.886545 197.300113
L 180.968727 215.266627
L 182.050909 224.249884
L 183.133091 222.453233
L 184.215273 233.233141
L 185.297455 197.300113
L 186.379636 206.28337
L 187.461818 206.28337
L 188.544 197.300113
L 189.626182 224.249884
L 190.708364 206.28337
L 191.790545 215.266627
L 192.872727 197.300113
L 195.037091 215.266627
L 196.119273 195.503462
L 197.201455 215.266627
L 198.283636 224.249884
L 199.365818 224.249884
L 200.448 215.266627
L 203.694545 242.216399
L 208.023273 242.216399
L 209.105455 179.333599
L 210.187636 233.233141
L 211.269818 213.469976
L 212.352 215.266627
L 214.516364 233.233141
L 215.598545 224.249884
L 216.680727 206.28337
L 217.762909 224.249884
L 218.845091 233.233141
L 219.927273 231.43649
L 221.009455 224.249884
L 222.091636 242.216399
L 223.173818 242.216399
L 225.338182 224.249884
L 226.420364 224.249884
L 227.502545 206.28337
L 228.584727 215.266627
L 229.666909 215.266627
L 230.749091 233.233141
L 231.831273 224.249884
L 232.913455 242.216399
L 233.995636 233.233141
L 235.077818 231.43649
L 236.16 222.453233
L 237.242182 215.266627
L 238.324364 209.876673
L 239.406545 215.266627
L 240.488727 242.216399
L 243.735273 242.216399
L 244.817455 233.233141
L 245.899636 242.216399
L 246.981818 224.249884
L 248.064 233.233141
L 249.146182 224.249884
L 250.228364 233.233141
L 251.310545 224.249884
L 252.392727 193.70681
L 253.474909 125.434057
L 254.557091 161.367085
L 255.639273 188.316856
L 256.721455 186.520205
L 257.803636 197.300113
L 258.885818 186.520205
L 259.968 206.28337
L 261.050182 184.723553
L 262.132364 155.977131
L 263.214545 197.300113
L 264.296727 195.503462
L 265.378909 186.520205
L 266.461091 188.316856
L 267.543273 204.486719
L 268.625455 197.300113
L 269.707636 215.266627
L 270.789818 197.300113
L 271.872 197.300113
L 272.954182 168.553691
L 274.036364 177.536948
L 275.118545 193.70681
L 276.200727 206.28337
L 277.282909 224.249884
L 278.365091 229.639839
L 279.447273 224.249884
L 280.529455 224.249884
L 281.611636 233.233141
L 282.693818 233.233141
L 283.776 242.216399
L 284.858182 233.233141
L 287.022545 233.233141
L 288.104727 224.249884
L 289.186909 242.216399
L 290.269091 233.233141
L 291.351273 242.216399
L 292.433455 242.216399
L 294.597818 224.249884
L 295.68 213.469976
L 296.762182 211.673324
L 297.844364 224.249884
L 298.926545 224.249884
L 300.008727 233.233141
L 301.090909 224.249884
L 302.173091 242.216399
L 303.255273 242.216399
L 304.337455 213.469976
L 305.419636 224.249884
L 306.501818 233.233141
L 308.666182 233.233141
L 309.748364 215.266627
L 310.830545 233.233141
L 311.912727 231.43649
L 312.994909 215.266627
L 314.077091 233.233141
L 315.159273 206.28337
L 316.241455 224.249884
L 317.323636 215.266627
L 318.405818 215.266627
L 319.488 233.233141
L 320.570182 224.249884
L 321.652364 206.28337
L 322.734545 224.249884
L 323.816727 224.249884
L 324.898909 188.316856
L 325.981091 197.300113
L 327.063273 215.266627
L 328.145455 206.28337
L 329.227636 224.249884
L 330.309818 215.266627
L 331.392 224.249884
L 332.474182 206.28337
L 333.556364 215.266627
L 334.638545 215.266627
L 335.720727 188.316856
L 336.802909 197.300113
L 337.885091 215.266627
L 338.967273 197.300113
L 341.131636 215.266627
L 342.213818 206.28337
L 343.296 224.249884
L 344.378182 215.266627
L 345.460364 215.266627
L 346.542545 224.249884
L 347.624727 224.249884
L 348.706909 206.28337
L 349.789091 224.249884
L 350.871273 206.28337
L 351.953455 215.266627
L 353.035636 206.28337
L 354.117818 215.266627
L 355.2 206.28337
L 356.282182 206.28337
L 357.364364 197.300113
L 358.446545 215.266627
L 360.610909 215.266627
L 361.693091 206.28337
L 363.857455 206.28337
L 366.021818 224.249884
L 367.104 206.28337
L 368.186182 222.453233
L 369.268364 215.266627
L 370.350545 215.266627
L 371.432727 224.249884
L 372.514909 224.249884
L 373.597091 215.266627
L 374.679273 233.233141
L 375.761455 233.233141
L 376.843636 224.249884
L 377.925818 233.233141
L 379.008 224.249884
L 380.090182 224.249884
L 381.172364 233.233141
L 385.501091 233.233141
L 386.583273 215.266627
L 387.665455 206.28337
L 388.747636 215.266627
L 389.829818 215.266627
L 390.912 188.316856
L 391.994182 206.28337
L 393.076364 215.266627
L 394.158545 215.266627
L 395.240727 224.249884
L 396.322909 206.28337
L 398.487273 206.28337
L 398.487273 206.28337
" clip-path="url(#p687a82b548)" style="fill: none; stroke: #ff0000; stroke-width: 1.5; stroke-linecap: square"/>
   </g>
   <g id="patch_3">
    <path d="M 57.6 307.584
L 57.6 41.472
" style="fill: none; stroke: #000000; stroke-width: 0.8; stroke-linejoin: miter; stroke-linecap: square"/>
   </g>
   <g id="patch_4">
    <path d="M 414.72 307.584
L 414.72 41.472
" style="fill: none; stroke: #000000; stroke-width: 0.8; stroke-linejoin: miter; stroke-linecap: square"/>
   </g>
   <g id="patch_5">
    <path d="M 57.6 307.584
L 414.72 307.584
" style="fill: none; stroke: #000000; stroke-width: 0.8; stroke-linejoin: miter; stroke-linecap: square"/>
   </g>
   <g id="patch_6">
    <path d="M 57.6 41.472
L 414.72 41.472
" style="fill: none; stroke: #000000; stroke-width: 0.8; stroke-linejoin: miter; stroke-linecap: square"/>
   </g>
   <g id="text_17">
    <!-- Population's average and best fitness -->
    <g transform="translate(123.529687 35.472)scale(0.12 -0.12)">
     <defs>
      <path id="DejaVuSans-50" d="M 1259 4147
L 1259 2394
L 2053 2394
Q 2494 2394 2734 2622
Q 2975 2850 2975 3272
Q 2975 3691 2734 3919
Q 2494 4147 2053 4147
L 1259 4147
z
M 628 4666
L 2053 4666
Q 2838 4666 3239 4311
Q 3641 3956 3641 3272
Q 3641 2581 3239 2228
Q 2838 1875 2053 1875
L 1259 1875
L 1259 0
L 628 0
L 628 4666
z
" transform="scale(0.015625)"/>
      <path id="DejaVuSans-70" d="M 1159 525
L 1159 -1331
L 581 -1331
L 581 3500
L 1159 3500
L 1159 2969
Q 1341 3281 1617 3432
Q 1894 3584 2278 3584
Q 2916 3584 3314 3078
Q 3713 2572 3713 1747
Q 3713 922 3314 415
Q 2916 -91 2278 -91
Q 1894 -91 1617 61
Q 1341 213 1159 525
z
M 3116 1747
Q 3116 2381 2855 2742
Q 2594 3103 2138 3103
Q 1681 3103 1420 2742
Q 1159 2381 1159 1747
Q 1159 1113 1420 752
Q 1681 391 2138 391
Q 2594 391 2855 752
Q 3116 1113 3116 1747
z
" transform="scale(0.015625)"/>
      <path id="DejaVuSans-75" d="M 544 1381
L 544 3500
L 1119 3500
L 1119 1403
Q 1119 906 1312 657
Q 1506 409 1894 409
Q 2359 409 2629 706
Q 2900 1003 2900 1516
L 2900 3500
L 3475 3500
L 3475 0
L 2900 0
L 2900 538
Q 2691 219 2414 64
Q 2138 -91 1772 -91
Q 1169 -91 856 284
Q 544 659 544 1381
z
M 1991 3584
L 1991 3584
z
" transform="scale(0.015625)"/>
      <path id="DejaVuSans-6c" d="M 603 4863
L 1178 4863
L 1178 0
L 603 0
L 603 4863
z
" transform="scale(0.015625)"/>
      <path id="DejaVuSans-27" d="M 1147 4666
L 1147 2931
L 616 2931
L 616 4666
L 1147 4666
z
" transform="scale(0.015625)"/>
      <path id="DejaVuSans-20" transform="scale(0.015625)"/>
      <path id="DejaVuSans-76" d="M 191 3500
L 800 3500
L 1894 563
L 2988 3500
L 3597 3500
L 2284 0
L 1503 0
L 191 3500
z
" transform="scale(0.015625)"/>
      <path id="DejaVuSans-67" d="M 2906 1791
Q 2906 2416 2648 2759
Q 2391 3103 1925 3103
Q 1463 3103 1205 2759
Q 947 2416 947 1791
Q 947 1169 1205 825
Q 1463 481 1925 481
Q 2391 481 2648 825
Q 2906 1169 2906 1791
z
M 3481 434
Q 3481 -459 3084 -895
Q 2688 -1331 1869 -1331
Q 1566 -1331 1297 -1286
Q 1028 -1241 775 -1147
L 775 -588
Q 1028 -725 1275 -790
Q 1522 -856 1778 -856
Q 2344 -856 2625 -561
Q 2906 -266 2906 331
L 2906 616
Q 2728 306 2450 153
Q 2172 0 1784 0
Q 1141 0 747 490
Q 353 981 353 1791
Q 353 2603 747 3093
Q 1141 3584 1784 3584
Q 2172 3584 2450 3431
Q 2728 3278 2906 2969
L 2906 3500
L 3481 3500
L 3481 434
z
" transform="scale(0.015625)"/>
      <path id="DejaVuSans-64" d="M 2906 2969
L 2906 4863
L 3481 4863
L 3481 0
L 2906 0
L 2906 525
Q 2725 213 2448 61
Q 2172 -91 1784 -91
Q 1150 -91 751 415
Q 353 922 353 1747
Q 353 2572 751 3078
Q 1150 3584 1784 3584
Q 2172 3584 2448 3432
Q 2725 3281 2906 2969
z
M 947 1747
Q 947 1113 1208 752
Q 1469 391 1925 391
Q 2381 391 2643 752
Q 2906 1113 2906 1747
Q 2906 2381 2643 2742
Q 2381 3103 1925 3103
Q 1469 3103 1208 2742
Q 947 2381 947 1747
z
" transform="scale(0.015625)"/>
      <path id="DejaVuSans-62" d="M 3116 1747
Q 3116 2381 2855 2742
Q 2594 3103 2138 3103
Q 1681 3103 1420 2742
Q 1159 2381 1159 1747
Q 1159 1113 1420 752
Q 1681 391 2138 391
Q 2594 391 2855 752
Q 3116 1113 3116 1747
z
M 1159 2969
Q 1341 3281 1617 3432
Q 1894 3584 2278 3584
Q 2916 3584 3314 3078
Q 3713 2572 3713 1747
Q 3713 922 3314 415
Q 2916 -91 2278 -91
Q 1894 -91 1617 61
Q 1341 213 1159 525
L 1159 0
L 581 0
L 581 4863
L 1159 4863
L 1159 2969
z
" transform="scale(0.015625)"/>
      <path id="DejaVuSans-66" d="M 2375 4863
L 2375 4384
L 1825 4384
Q 1516 4384 1395 4259
Q 1275 4134 1275 3809
L 1275 3500
L 2222 3500
L 2222 3053
L 1275 3053
L 1275 0
L 697 0
L 697 3053
L 147 3053
L 147 3500
L 697 3500
L 697 3744
Q 697 4328 969 4595
Q 1241 4863 1831 4863
L 2375 4863
z
" transform="scale(0.015625)"/>
     </defs>
     <use xlink:href="#DejaVuSans-50"/>
     <use xlink:href="#DejaVuSans-6f" x="56.677734"/>
     <use xlink:href="#DejaVuSans-70" x="117.859375"/>
     <use xlink:href="#DejaVuSans-75" x="181.335938"/>
     <use xlink:href="#DejaVuSans-6c" x="244.714844"/>
     <use xlink:href="#DejaVuSans-61" x="272.498047"/>
     <use xlink:href="#DejaVuSans-74" x="333.777344"/>
     <use xlink:href="#DejaVuSans-69" x="372.986328"/>
     <use xlink:href="#DejaVuSans-6f" x="400.769531"/>
     <use xlink:href="#DejaVuSans-6e" x="461.951172"/>
     <use xlink:href="#DejaVuSans-27" x="525.330078"/>
     <use xlink:href="#DejaVuSans-73" x="552.820312"/>
     <use xlink:href="#DejaVuSans-20" x="604.919922"/>
     <use xlink:href="#DejaVuSans-61" x="636.707031"/>
     <use xlink:href="#DejaVuSans-76" x="697.986328"/>
     <use xlink:href="#DejaVuSans-65" x="757.166016"/>
     <use xlink:href="#DejaVuSans-72" x="818.689453"/>
     <use xlink:href="#DejaVuSans-61" x="859.802734"/>
     <use xlink:href="#DejaVuSans-67" x="921.082031"/>
     <use xlink:href="#DejaVuSans-65" x="984.558594"/>
     <use xlink:href="#DejaVuSans-20" x="1046.082031"/>
     <use xlink:href="#DejaVuSans-61" x="1077.869141"/>
     <use xlink:href="#DejaVuSans-6e" x="1139.148438"/>
     <use xlink:href="#DejaVuSans-64" x="1202.527344"/>
     <use xlink:href="#DejaVuSans-20" x="1266.003906"/>
     <use xlink:href="#DejaVuSans-62" x="1297.791016"/>
     <use xlink:href="#DejaVuSans-65" x="1361.267578"/>
     <use xlink:href="#DejaVuSans-73" x="1422.791016"/>
     <use xlink:href="#DejaVuSans-74" x="1474.890625"/>
     <use xlink:href="#DejaVuSans-20" x="1514.099609"/>
     <use xlink:href="#DejaVuSans-66" x="1545.886719"/>
     <use xlink:href="#DejaVuSans-69" x="1581.091797"/>
     <use xlink:href="#DejaVuSans-74" x="1608.875"/>
     <use xlink:href="#DejaVuSans-6e" x="1648.083984"/>
     <use xlink:href="#DejaVuSans-65" x="1711.462891"/>
     <use xlink:href="#DejaVuSans-73" x="1772.986328"/>
     <use xlink:href="#DejaVuSans-73" x="1825.085938"/>
    </g>
   </g>
   <g id="legend_1">
    <g id="patch_7">
     <path d="M 334.779375 108.1845
L 407.72 108.1845
Q 409.72 108.1845 409.72 106.1845
L 409.72 48.472
Q 409.72 46.472 407.72 46.472
L 334.779375 46.472
Q 332.779375 46.472 332.779375 48.472
L 332.779375 106.1845
Q 332.779375 108.1845 334.779375 108.1845
z
" style="fill: #ffffff; opacity: 0.8; stroke: #cccccc; stroke-linejoin: miter"/>
    </g>
    <g id="line2d_33">
     <path d="M 336.779375 54.570438
L 346.779375 54.570438
L 356.779375 54.570438
" style="fill: none; stroke: #0000ff; stroke-width: 1.5; stroke-linecap: square"/>
    </g>
    <g id="text_18">
     <!-- average -->
     <g transform="translate(364.779375 58.070438)scale(0.1 -0.1)">
      <use xlink:href="#DejaVuSans-61"/>
      <use xlink:href="#DejaVuSans-76" x="61.279297"/>
      <use xlink:href="#DejaVuSans-65" x="120.458984"/>
      <use xlink:href="#DejaVuSans-72" x="181.982422"/>
      <use xlink:href="#DejaVuSans-61" x="223.095703"/>
      <use xlink:href="#DejaVuSans-67" x="284.375"/>
      <use xlink:href="#DejaVuSans-65" x="347.851562"/>
     </g>
    </g>
    <g id="line2d_34">
     <path d="M 336.779375 69.248563
L 346.779375 69.248563
L 356.779375 69.248563
" style="fill: none; stroke-dasharray: 9.6,2.4,1.5,2.4; stroke-dashoffset: 0; stroke: #008000; stroke-width: 1.5"/>
    </g>
    <g id="text_19">
     <!-- -1 sd -->
     <g transform="translate(364.779375 72.748563)scale(0.1 -0.1)">
      <defs>
       <path id="DejaVuSans-2d" d="M 313 2009
L 1997 2009
L 1997 1497
L 313 1497
L 313 2009
z
" transform="scale(0.015625)"/>
      </defs>
      <use xlink:href="#DejaVuSans-2d"/>
      <use xlink:href="#DejaVuSans-31" x="36.083984"/>
      <use xlink:href="#DejaVuSans-20" x="99.707031"/>
      <use xlink:href="#DejaVuSans-73" x="131.494141"/>
      <use xlink:href="#DejaVuSans-64" x="183.59375"/>
     </g>
    </g>
    <g id="line2d_35">
     <path d="M 336.779375 83.926688
L 346.779375 83.926688
L 356.779375 83.926688
" style="fill: none; stroke-dasharray: 9.6,2.4,1.5,2.4; stroke-dashoffset: 0; stroke: #008000; stroke-width: 1.5"/>
    </g>
    <g id="text_20">
     <!-- +1 sd -->
     <g transform="translate(364.779375 87.426688)scale(0.1 -0.1)">
      <defs>
       <path id="DejaVuSans-2b" d="M 2944 4013
L 2944 2272
L 4684 2272
L 4684 1741
L 2944 1741
L 2944 0
L 2419 0
L 2419 1741
L 678 1741
L 678 2272
L 2419 2272
L 2419 4013
L 2944 4013
z
" transform="scale(0.015625)"/>
      </defs>
      <use xlink:href="#DejaVuSans-2b"/>
      <use xlink:href="#DejaVuSans-31" x="83.789062"/>
      <use xlink:href="#DejaVuSans-20" x="147.412109"/>
      <use xlink:href="#DejaVuSans-73" x="179.199219"/>
      <use xlink:href="#DejaVuSans-64" x="231.298828"/>
     </g>
    </g>
    <g id="line2d_36">
     <path d="M 336.779375 98.604813
L 346.779375 98.604813
L 356.779375 98.604813
" style="fill: none; stroke: #ff0000; stroke-width: 1.5; stroke-linecap: square"/>
    </g>
    <g id="text_21">
     <!-- best -->
     <g transform="translate(364.779375 102.104813)scale(0.1 -0.1)">
      <use xlink:href="#DejaVuSans-62"/>
      <use xlink:href="#DejaVuSans-65" x="63.476562"/>
      <use xlink:href="#DejaVuSans-73" x="125"/>
      <use xlink:href="#DejaVuSans-74" x="177.099609"/>
     </g>
    </g>
   </g>
  </g>
 </g>
 <defs>
  <clipPath id="p687a82b548">
   <rect x="57.6" y="41.472" width="357.12" height="266.112"/>
  </clipPath>
 </defs>
</svg>
